<svg width="264" height="266" viewBox="0 0 264 266" fill="none" xmlns="http://www.w3.org/2000/svg">
    <path d="M96.5659 0.854492H24.8577C11.6757 0.854492 0.953125 11.6473 0.953125 24.9155V97.093C0.953125 110.361 11.6757 121.154 24.8577 121.154H96.5659C109.748 121.154 120.47 110.361 120.47 97.093V24.9155C120.465 11.6473 109.748 0.854492 96.5659 0.854492ZM108.515 97.093C108.515 103.724 103.154 109.121 96.5659 109.121H24.8577C18.2695 109.121 12.9082 103.724 12.9082 97.093V24.9155C12.9082 18.2842 18.2695 12.8878 24.8577 12.8878H96.5659C103.154 12.8878 108.515 18.2842 108.515 24.9155V97.093Z" fill="white"/>
    <path d="M239.982 0.854492H168.274C155.092 0.854492 144.369 11.6473 144.369 24.9155V97.093C144.369 110.361 155.092 121.154 168.274 121.154H239.982C253.164 121.154 263.887 110.361 263.887 97.093V24.9155C263.881 11.6473 253.164 0.854492 239.982 0.854492ZM251.932 97.093C251.932 103.724 246.57 109.121 239.982 109.121H168.274C161.686 109.121 156.324 103.724 156.324 97.093V24.9155C156.324 18.2842 161.686 12.8878 168.274 12.8878H239.982C246.57 12.8878 251.932 18.2842 251.932 24.9155V97.093Z" fill="white"/>
    <path d="M96.5659 145.209H24.8577C11.6757 145.209 0.953125 156.002 0.953125 169.27V241.448C0.953125 254.716 11.6757 265.509 24.8577 265.509H96.5659C109.748 265.509 120.47 254.716 120.47 241.448V169.27C120.465 156.002 109.748 145.209 96.5659 145.209ZM108.515 241.448C108.515 248.079 103.154 253.476 96.5659 253.476H24.8577C18.2695 253.476 12.9082 248.079 12.9082 241.448V169.27C12.9082 162.639 18.2695 157.243 24.8577 157.243H96.5659C103.154 157.243 108.515 162.639 108.515 169.27V241.448Z" fill="white"/>
    <path d="M234.005 199.342H210.1V175.281C210.1 171.954 207.428 169.265 204.123 169.265C200.817 169.265 198.145 171.954 198.145 175.281V199.342H174.24C170.935 199.342 168.263 202.032 168.263 205.359C168.263 208.686 170.935 211.376 174.24 211.376H198.151V235.431C198.151 238.758 200.823 241.448 204.128 241.448C207.434 241.448 210.106 238.758 210.106 235.431V211.37H234.005C237.31 211.37 239.982 208.68 239.982 205.354C239.982 202.032 237.31 199.342 234.005 199.342Z" fill="white"/>
</svg>
