<svg width="235" height="237" viewBox="0 0 235 237" fill="none" xmlns="http://www.w3.org/2000/svg">
    <path d="M212.623 98.5804C199.384 84.34 181.76 75.4029 162.673 73.1687C157.947 32.4792 123.492 0.800537 81.8168 0.800537C67.4982 0.800537 53.4175 4.59388 41.087 11.7754C38.8978 13.046 38.1538 15.8634 39.4161 18.067C40.6784 20.2644 43.4775 21.0194 45.6667 19.7427C56.6069 13.3714 69.1082 10.0077 81.8168 10.0077C121.662 10.0077 154.08 42.6378 154.08 82.7441C154.08 122.85 121.662 155.481 81.8168 155.481C41.9712 155.481 9.55328 122.85 9.55328 82.7441C9.55328 70.3022 12.7243 58.0321 18.725 47.2475C19.9568 45.0316 19.1762 42.2265 16.9687 40.9805C14.7672 39.7406 11.9804 40.5324 10.7424 42.7483C3.97954 54.9017 0.406006 68.7308 0.406006 82.7441C0.406006 124.692 31.8787 159.372 72.3036 164.129C74.5234 183.341 83.4023 201.08 97.5501 214.406C112.68 228.659 132.432 236.503 153.166 236.503C198.054 236.503 234.576 199.742 234.576 154.56C234.576 133.69 226.777 113.815 212.623 98.5804ZM120.455 154.854C120.87 155.303 121.321 155.708 121.821 156.076L132.596 163.902L128.48 176.62C127.236 180.463 128.529 184.483 131.779 186.858C133.401 188.043 135.261 188.638 137.121 188.638C138.987 188.638 140.847 188.043 142.475 186.852L153.227 178.971L163.917 186.791C167.167 189.166 171.363 189.166 174.613 186.785C177.857 184.403 179.15 180.383 177.9 176.534L173.784 163.902L184.529 156.064C187.779 153.694 189.078 149.674 187.84 145.831C186.602 141.989 183.205 139.503 179.193 139.503H165.85L161.764 126.822C160.618 123.274 157.642 120.886 154.031 120.542C156.385 116 158.331 111.213 159.819 106.222C183.528 109.5 201.646 130.112 201.646 154.56C201.646 181.469 179.9 203.358 153.166 203.358C128.822 203.358 108.393 185.14 105.136 161.256C110.497 159.642 115.625 157.488 120.455 154.854ZM130.053 148.71H143.756C145.744 148.71 147.5 147.421 148.11 145.518L153.123 129.829L158.178 145.525C158.788 147.421 160.544 148.71 162.526 148.71H179.01L165.71 158.421C164.1 159.593 163.429 161.68 164.051 163.583L169.155 179.235L155.91 169.549C154.306 168.377 152.135 168.377 150.531 169.549L137.237 179.302L142.335 163.558C142.951 161.655 142.274 159.568 140.664 158.402L128.7 149.705C129.145 149.379 129.602 149.048 130.053 148.71ZM153.166 227.296C117.052 227.296 86.5246 200.172 81.5973 164.688C81.6704 164.688 81.7436 164.688 81.8168 164.688C86.7258 164.688 91.5373 164.252 96.2085 163.405C100.465 191.364 124.535 212.565 153.166 212.565C184.943 212.565 210.793 186.545 210.793 154.56C210.793 125.803 189.706 101.521 161.953 97.23C162.795 92.5282 163.228 87.6853 163.228 82.7441C163.228 82.6704 163.228 82.6029 163.228 82.5293C198.481 87.4888 225.429 118.216 225.429 154.56C225.429 194.666 193.011 227.296 153.166 227.296Z" fill="#42B7A0"/>
    <path d="M81.8168 140.749C113.594 140.749 139.445 114.73 139.445 82.7441C139.445 50.7585 113.594 24.7391 81.8168 24.7391C50.0392 24.7391 24.189 50.7585 24.189 82.7441C24.189 114.73 50.0392 140.749 81.8168 140.749ZM81.8168 33.9463C108.551 33.9463 130.297 55.8347 130.297 82.7441C130.297 109.654 108.551 131.542 81.8168 131.542C55.0824 131.542 33.3362 109.654 33.3362 82.7441C33.3362 55.8347 55.0824 33.9463 81.8168 33.9463Z" fill="#42B7A0"/>
    <path d="M50.472 84.2541L61.2475 92.0802L57.1312 104.798C55.8872 108.641 57.1861 112.661 60.4304 115.037C62.0525 116.221 63.9124 116.817 65.7724 116.817C67.6384 116.817 69.4984 116.221 71.1266 115.024L81.8777 107.143L92.5678 114.963C95.8181 117.338 100.014 117.338 103.264 114.957C106.508 112.575 107.801 108.555 106.551 104.706L102.435 92.0741L113.18 84.2357C116.43 81.8664 117.729 77.846 116.491 74.0035C115.253 70.1611 111.856 67.6751 107.844 67.6751H94.5009L90.4151 54.9938C89.1772 51.1575 85.7866 48.6777 81.774 48.6777C81.774 48.6777 81.7679 48.6777 81.7618 48.6777C77.7431 48.6839 74.3464 51.1759 73.1146 55.0245L69.0715 67.6874H55.7957C51.777 67.6874 48.3803 70.1733 47.1485 74.0219C45.9106 77.8767 47.2217 81.891 50.472 84.2541ZM72.4072 76.8946C74.3952 76.8946 76.1515 75.6056 76.7613 73.7027L81.774 58.0138L86.8294 73.7089C87.4392 75.6056 89.1955 76.8946 91.1774 76.8946H107.661L94.3607 86.605C92.7507 87.7774 92.0799 89.8643 92.702 91.7672L97.8061 107.419L84.5609 97.7334C82.9571 96.561 80.78 96.561 79.1823 97.7334L65.8821 107.487L70.9802 91.7426C71.5961 89.8398 70.9192 87.7528 69.3093 86.5805L55.9787 76.8884H72.4072V76.8946Z" fill="#42B7A0"/>
    <path d="M27.11 33.0439C28.3114 33.0439 29.4944 32.5529 30.3421 31.6936C31.1897 30.8404 31.6837 29.6496 31.6837 28.4404C31.6837 27.2312 31.1958 26.0404 30.3421 25.1872C29.4944 24.3278 28.3114 23.8368 27.11 23.8368C25.9087 23.8368 24.7256 24.3278 23.878 25.1872C23.0303 26.0404 22.5364 27.2312 22.5364 28.4404C22.5364 29.6496 23.0242 30.8404 23.878 31.6936C24.7256 32.5529 25.9026 33.0439 27.11 33.0439Z" fill="#42B7A0"/>
</svg>
