<svg width="197" height="199" viewBox="0 0 197 199" fill="none" xmlns="http://www.w3.org/2000/svg">
    <path d="M101.722 6.8202C86.5307 6.8202 71.5498 10.5089 58.131 17.515L42.433 1.7024C41.0451 0.304288 39.0425 -0.289005 37.127 0.134039C35.2063 0.557083 33.634 1.9294 32.9477 3.7815L25.0193 25.202L3.7541 33.1831C1.91541 33.8744 0.547923 35.4582 0.133067 37.3929C-0.286911 39.3275 0.302083 41.3396 1.69006 42.7377L17.3829 58.5451C10.4276 72.067 6.76565 87.1522 6.76565 102.459C6.77077 155.2 49.3627 198.108 101.722 198.108C154.075 198.108 196.672 155.2 196.672 102.464C196.672 49.7231 154.075 6.8202 101.722 6.8202ZM101.722 133.94C118.956 133.94 132.974 119.819 132.974 102.464C132.974 85.1092 118.956 70.9888 101.722 70.9888C95.1864 70.9888 89.1172 73.0215 84.0979 76.4935L69.5882 61.8779C78.4077 54.779 89.5832 50.5279 101.722 50.5279C130.152 50.5279 153.287 73.8263 153.287 102.469C153.287 131.107 130.157 154.406 101.722 154.406C73.2912 154.406 50.1617 131.107 50.1617 102.469C50.1617 90.2373 54.3819 78.9854 61.4294 70.1014L75.934 84.7119C72.4922 89.773 70.4691 95.8865 70.4691 102.469C70.4691 119.819 84.4923 133.94 101.722 133.94ZM105.798 98.3525L92.477 84.9338C95.2376 83.448 98.3823 82.607 101.722 82.607C112.59 82.607 121.435 91.5167 121.435 102.459C121.435 113.407 112.59 122.316 101.722 122.316C90.8534 122.316 82.0134 113.407 82.0134 102.459C82.0134 99.0954 82.8482 95.9277 84.3233 93.147L97.6448 106.566C98.7715 107.701 100.247 108.268 101.722 108.268C103.197 108.268 104.677 107.701 105.804 106.566C108.052 104.306 108.052 100.623 105.798 98.3525ZM40.62 16.3181L60.0363 35.8761L57.542 49.7437L36.2051 28.251L40.62 16.3181ZM16.1998 40.9165L28.0462 36.4694L49.3832 57.9621L35.6161 60.4746L16.1998 40.9165ZM101.722 186.485C55.7289 186.485 18.3099 148.793 18.3099 102.464C18.3099 90.2682 20.9578 78.2321 26.0129 67.2381L29.593 70.8495C30.6839 71.9484 32.1538 72.552 33.675 72.552C34.0181 72.552 34.3613 72.521 34.7044 72.4591L47.4164 70.1375C41.8338 79.6148 38.6225 90.6706 38.6225 102.469C38.6225 137.515 66.93 166.029 101.727 166.029C136.518 166.029 164.826 137.515 164.826 102.469C164.826 67.4187 136.518 38.9045 101.727 38.9045C90.0135 38.9045 79.0377 42.1392 69.6292 47.7626L71.9339 34.9578C72.272 33.0799 71.6727 31.1607 70.336 29.809L66.7559 26.2028C77.6702 21.1108 89.6191 18.4436 101.727 18.4436C147.719 18.4436 185.138 56.1358 185.138 102.464C185.133 148.793 147.714 186.485 101.722 186.485Z" fill="#42B7A0"/>
</svg>
