<svg width="29" height="29" viewBox="0 0 29 29" fill="none" xmlns="http://www.w3.org/2000/svg">
    <path d="M11.716 12.847C11.7885 12.3685 11.948 11.948 12.151 11.5855C12.354 11.223 12.644 10.9185 13.0065 10.6865C13.3545 10.469 13.7895 10.3675 14.326 10.353C14.6595 10.3675 14.964 10.4255 15.2395 10.5415C15.5295 10.672 15.7905 10.846 15.9935 11.0635C16.1965 11.281 16.356 11.542 16.4865 11.832C16.617 12.122 16.675 12.441 16.6895 12.76H19.285C19.256 12.0785 19.1255 11.455 18.879 10.8895C18.6325 10.324 18.299 9.831 17.864 9.425C17.429 9.019 16.907 8.7 16.298 8.468C15.689 8.236 15.022 8.1345 14.2825 8.1345C13.34 8.1345 12.5135 8.294 11.8175 8.6275C11.1215 8.961 10.5415 9.396 10.0775 9.9615C9.6135 10.527 9.2655 11.1795 9.048 11.9335C8.8305 12.6875 8.7 13.4705 8.7 14.3115V14.703C8.7 15.544 8.816 16.327 9.0335 17.081C9.251 17.835 9.599 18.4875 10.063 19.0385C10.527 19.5895 11.107 20.039 11.803 20.358C12.499 20.677 13.3255 20.851 14.268 20.851C14.9495 20.851 15.5875 20.735 16.182 20.5175C16.7765 20.3 17.2985 19.9955 17.748 19.604C18.1975 19.2125 18.56 18.763 18.821 18.241C19.082 17.719 19.2415 17.168 19.256 16.5735H16.6605C16.646 16.878 16.5735 17.1535 16.443 17.4145C16.3125 17.6755 16.1385 17.893 15.921 18.0815C15.7035 18.27 15.457 18.415 15.167 18.5165C14.8915 18.618 14.6015 18.647 14.297 18.6615C13.775 18.647 13.34 18.5455 13.0065 18.328C12.644 18.096 12.354 17.7915 12.151 17.429C11.948 17.0665 11.7885 16.6315 11.716 16.153C11.6435 15.6745 11.6 15.1815 11.6 14.703V14.3115C11.6 13.804 11.6435 13.3255 11.716 12.847ZM14.5 0C6.496 0 0 6.496 0 14.5C0 22.504 6.496 29 14.5 29C22.504 29 29 22.504 29 14.5C29 6.496 22.504 0 14.5 0ZM14.5 26.1C8.1055 26.1 2.9 20.8945 2.9 14.5C2.9 8.1055 8.1055 2.9 14.5 2.9C20.8945 2.9 26.1 8.1055 26.1 14.5C26.1 20.8945 20.8945 26.1 14.5 26.1Z" fill="white"/>
</svg>
