<svg width="26" height="25" viewBox="0 0 26 25" fill="none" xmlns="http://www.w3.org/2000/svg">
    <path d="M25.687 16.4887C25.3642 16.1784 24.8706 16.0998 24.4586 16.2934C22.8523 17.0565 21.1397 17.4435 19.374 17.4435C15.026 17.4435 11.0939 15.1286 9.11169 11.4024C8.84398 10.8967 8.20033 10.6977 7.6744 10.9569C7.14847 11.2144 6.94151 11.8333 7.20923 12.339C9.55787 16.7553 14.2191 19.4993 19.374 19.4993C20.3613 19.4993 21.3334 19.3988 22.2865 19.1962C20.1353 21.5586 17.0272 22.9461 13.6552 22.9461C7.30416 22.9461 2.1379 17.9785 2.1379 11.8716C2.1379 8.62737 3.58278 5.63875 6.03775 3.57026C5.827 4.48492 5.72257 5.41967 5.72257 6.37084C5.72257 6.76884 5.74156 7.16866 5.77763 7.56301C5.8308 8.12714 6.34913 8.54522 6.93772 8.4941C7.5244 8.44298 7.9573 7.94457 7.90603 7.37861C7.87566 7.04634 7.85857 6.70677 7.85857 6.37084C7.85857 4.67297 8.26108 3.02621 9.05473 1.48169C9.25788 1.08735 9.17624 0.612674 8.85157 0.300484C8.5269 -0.00987989 8.03325 -0.0883838 7.62313 0.105137C2.92014 2.33793 0 6.84552 0 11.8716C0 19.1104 6.12509 25 13.6533 25C18.8784 25 23.5681 22.1921 25.8902 17.6718C26.0914 17.2756 26.0117 16.8009 25.687 16.4887Z" fill="#42B7A0"/>
</svg>
