<svg width="28" height="28" viewBox="0 0 28 28" fill="none" xmlns="http://www.w3.org/2000/svg">
<path fill-rule="evenodd" clip-rule="evenodd" d="M0 14C0 6.26818 6.26818 0 14 0C21.7318 0 28 6.26818 28 14C28 21.7318 21.7318 28 14 28C6.26818 28 0 21.7318 0 14ZM15.036 4.35145C14.9183 4.18647 14.7628 4.05199 14.5826 3.9592C14.4024 3.86642 14.2027 3.81801 14 3.81801C13.7973 3.81801 13.5976 3.86642 13.4174 3.9592C13.2372 4.05199 13.0817 4.18647 12.964 4.35145L6.60036 13.2605C6.44632 13.4763 6.36351 13.7349 6.36351 14C6.36351 14.2651 6.44632 14.5237 6.60036 14.7395L12.964 23.6485C13.0817 23.8135 13.2372 23.948 13.4174 24.0408C13.5976 24.1336 13.7973 24.182 14 24.182C14.2027 24.182 14.4024 24.1336 14.5826 24.0408C14.7628 23.948 14.9183 23.8135 15.036 23.6485L21.3996 14.7395C21.5537 14.5237 21.6365 14.2651 21.6365 14C21.6365 13.7349 21.5537 13.4763 21.3996 13.2605L15.036 4.35145ZM14 16L9 14L14 12L19 14L14 16ZM14.4722 17.7265L18 16L14 22L10 16L13.5278 17.7265C13.831 17.8477 14.169 17.8477 14.4722 17.7265ZM14 6L10 11.5L13.5278 10.2735C13.831 10.1523 14.169 10.1523 14.4722 10.2735L18 11.5L14 6Z" fill="#38AA8E"/>
</svg>
