<svg width="33" height="33" viewBox="0 0 33 33" fill="none" xmlns="http://www.w3.org/2000/svg">
    <path d="M10.8094 26.51C10.235 26.1821 9.50039 26.3767 9.1694 26.9458L7.88388 29.1542C7.55289 29.7233 7.74935 30.451 8.32378 30.7788C8.51169 30.8867 8.71883 30.9375 8.92169 30.9375C9.3381 30.9375 9.74169 30.7238 9.96378 30.3431L11.2493 28.1346C11.5803 27.5656 11.3838 26.8379 10.8094 26.51Z" fill="#42B7A0"/>
    <path d="M22.4751 6.48996C22.6631 6.59785 22.8702 6.65073 23.0731 6.65073C23.4873 6.65073 23.8931 6.43708 24.1151 6.05419L25.4007 3.84573C25.7338 3.27669 25.5352 2.549 24.9608 2.22112C24.3863 1.89323 23.6518 2.08785 23.3208 2.65689L22.0352 4.86535C21.7043 5.43439 21.9007 6.16208 22.4751 6.48996Z" fill="#42B7A0"/>
    <path d="M24.1176 26.9458C23.7866 26.3767 23.0499 26.1821 22.4776 26.51C21.9032 26.8379 21.7067 27.5656 22.0377 28.1346L23.3232 30.3431C23.5453 30.7238 23.9489 30.9375 24.3653 30.9375C24.5682 30.9375 24.7753 30.8867 24.9632 30.7788C25.5376 30.451 25.7341 29.7212 25.4031 29.1542L24.1176 26.9458Z" fill="#42B7A0"/>
    <path d="M9.16745 6.05639C9.38953 6.43716 9.79312 6.65293 10.2095 6.65293C10.4124 6.65293 10.6195 6.60005 10.8096 6.49216C11.384 6.16428 11.5805 5.43658 11.2495 4.86755L9.96182 2.65908C9.63083 2.09005 8.89411 1.89543 8.32182 2.22331C7.7474 2.5512 7.55094 3.28101 7.88193 3.84793L9.16745 6.05639Z" fill="#42B7A0"/>
    <path d="M6.09847 9.09617L3.86909 7.8206C3.29467 7.4906 2.56008 7.68733 2.22909 8.25637C1.89811 8.8254 2.09456 9.5531 2.66899 9.88098L4.89837 11.1566C5.08842 11.2644 5.29342 11.3152 5.49842 11.3152C5.91269 11.3152 6.31628 11.1016 6.5405 10.7208C6.87149 10.1517 6.6729 9.42406 6.09847 9.09617Z" fill="#42B7A0"/>
    <path d="M30.6161 23.119L28.3867 21.8434C27.8122 21.5155 27.0777 21.7102 26.7467 22.2792C26.4157 22.8482 26.6121 23.5759 27.1866 23.9038L29.4159 25.1794C29.606 25.2873 29.8131 25.338 30.016 25.338C30.4303 25.338 30.8339 25.1244 31.0581 24.7436C31.3869 24.1746 31.1905 23.4469 30.6161 23.119Z" fill="#42B7A0"/>
    <path d="M4.89837 21.8435L2.66899 23.119C2.09456 23.4469 1.89811 24.1746 2.22909 24.7437C2.45118 25.1244 2.85477 25.3381 3.27118 25.3381C3.47404 25.3381 3.68118 25.2873 3.87123 25.1794L6.09847 23.9038C6.6729 23.576 6.86935 22.8483 6.53837 22.2792C6.20738 21.7102 5.47279 21.5135 4.89837 21.8435Z" fill="#42B7A0"/>
    <path d="M27.7888 11.3173C27.9938 11.3173 28.1988 11.2665 28.3888 11.1586L30.6182 9.88306C31.1926 9.55518 31.3891 8.82749 31.0581 8.25845C30.7271 7.68941 29.9925 7.4948 29.4181 7.82268L27.1866 9.09614C26.6121 9.42403 26.4157 10.1517 26.7467 10.7208C26.9688 11.1036 27.3723 11.3173 27.7888 11.3173Z" fill="#42B7A0"/>
    <path d="M4.97552 16.5C4.97552 15.8421 4.4374 15.3091 3.77328 15.3091H1.20224C0.538125 15.3112 0 15.8442 0 16.5C0 17.1558 0.538125 17.6889 1.20224 17.6889H3.77542C4.4374 17.691 4.97552 17.1558 4.97552 16.5Z" fill="#42B7A0"/>
    <path d="M32.085 15.3112H29.5118C28.8477 15.3112 28.3096 15.8442 28.3096 16.5021C28.3096 17.1579 28.8477 17.691 29.5118 17.691H32.085C32.7491 17.691 33.2872 17.1579 33.2872 16.5021C33.2851 15.8442 32.747 15.3112 32.085 15.3112Z" fill="#42B7A0"/>
    <path d="M16.6432 4.94366C17.3051 4.94366 17.8433 4.41058 17.8433 3.7527V1.20366C17.8433 0.545772 17.3051 0.0126953 16.6432 0.0126953C15.979 0.0126953 15.4409 0.545772 15.4409 1.20366V3.7527C15.4409 4.41058 15.979 4.94366 16.6432 4.94366Z" fill="#42B7A0"/>
    <path d="M16.6432 28.0563C15.979 28.0563 15.4409 28.5894 15.4409 29.2473V31.7963C15.4409 32.4542 15.979 32.9873 16.6432 32.9873C17.3051 32.9873 17.8433 32.4542 17.8433 31.7963V29.2473C17.8433 28.5894 17.3051 28.0563 16.6432 28.0563Z" fill="#42B7A0"/>
    <path d="M23.0855 12.136C22.4876 12.4194 22.2335 13.1302 22.5196 13.7225C22.9467 14.6046 23.1603 15.5396 23.1603 16.5C23.1603 20.0602 20.2347 22.9583 16.6408 22.9583C13.0448 22.9583 10.1214 20.0602 10.1214 16.5C10.1214 12.9377 13.0469 10.0417 16.6408 10.0417C17.6103 10.0417 18.5542 10.2554 19.4446 10.6764C20.0425 10.9598 20.76 10.7102 21.0462 10.1158C21.3323 9.52347 21.0782 8.81271 20.4803 8.52924C19.2631 7.95386 17.9712 7.65982 16.6408 7.65982C11.723 7.66194 7.72119 11.6262 7.72119 16.5C7.72119 21.3717 11.723 25.3381 16.643 25.3381C21.563 25.3381 25.5647 21.3717 25.5647 16.5C25.5647 15.1821 25.27 13.9002 24.6871 12.6966C24.4009 12.1021 23.6834 11.8525 23.0855 12.136Z" fill="#42B7A0"/>
</svg>
