<svg width="105" height="85" viewBox="0 0 105 85" fill="none" xmlns="http://www.w3.org/2000/svg">
    <path d="M104.482 10.0167C100.597 11.715 96.4561 12.8418 92.14 13.3889C96.5806 10.7469 99.9702 6.59376 101.564 1.58844C97.4234 4.04941 92.8522 5.78632 87.9811 6.75647C84.0486 2.583 78.4469 0 72.3329 0C60.4744 0 50.9259 9.5937 50.9259 21.3535C50.9259 23.0456 51.0687 24.6727 51.4218 26.2225C33.6166 25.3561 17.8582 16.8505 7.27309 3.8928C5.4242 7.08799 4.34059 10.7469 4.34059 14.6844C4.34059 22.0775 8.16079 28.6326 13.8544 32.4258C10.4137 32.3607 7.03636 31.3641 4.17733 29.796C4.17733 29.8611 4.17733 29.9465 4.17733 30.0299C4.17733 40.4046 11.6014 49.022 21.3397 51.0071C19.5969 51.483 17.695 51.7108 15.7237 51.7108C14.3523 51.7108 12.9687 51.6335 11.6688 51.3467C14.4441 59.8015 22.3192 66.0169 31.684 66.2183C24.3967 71.9009 15.1421 75.3239 5.12626 75.3239C3.36921 75.3239 1.68563 75.2466 0 75.031C9.48726 81.1264 20.7316 84.6084 32.8575 84.6084C72.2737 84.6084 93.8236 52.0667 93.8236 23.8592C93.8236 22.9155 93.791 22.0043 93.7461 21.0992C97.9969 18.0932 101.57 14.3387 104.482 10.0167Z" fill="#42B7A0"/>
</svg>
