<svg xmlns="http://www.w3.org/2000/svg" width="80" height="80" viewBox="0 0 80 80"><defs><style>.a{fill:#4a7abc;}.b{fill:#fff;}</style></defs><rect class="a" width="80" height="80"/><path class="b" d="M277.6,26.615c-.154-.725-2.429-2.082-2.429-2.082s-.07-3.47-5.9-4.441c0,0-3.774-2.433-3.663-.708,0,0,.318.988-.144,1.419s-4.948,2.328-8.248,1.464a16.967,16.967,0,0,1-5.088-2.127,31.083,31.083,0,0,0-9.055-4.4,1.809,1.809,0,0,0-3.3-.589,11.475,11.475,0,0,0-4.211.415,13.744,13.744,0,0,0-5.342,3.445,22.169,22.169,0,0,1-7.677,5.2c-4.232,1.48-8.58.879-8.7-2.891,0,0,2.591.25,1.511-2.774a1.992,1.992,0,0,0-.423-.628h.006c-.9-.9-3.544-2.948-4.932,2.626,0,0-1.573,9.933,12.025,8.106a28.419,28.419,0,0,0,6.3-2.626,1.806,1.806,0,0,0,2.3.055c.669.733,2.259,1.823,5.96,2.361l-2.636,4.429s-.452.682.671,1.133,5.574,2.209,7.435,4.406c0,0,.417.491.885-.168s1.486-2.063.618-3.382-3.942-2.684-3.942-2.684a17.239,17.239,0,0,0,3.585-3.981s3.133,2.918,3.954,4.872l-6.5,8.619a4.625,4.625,0,0,0,.1,6.277,1.533,1.533,0,0,0,.795.234l3.174.025a.873.873,0,0,0,.353-.082c.193-.136.415-.478.014-1.32a4.53,4.53,0,0,0-2.267-1.881,3.981,3.981,0,0,1,1.573-2.065,64.1,64.1,0,0,1,12.561-6.2.226.226,0,0,1,.066-.027,2.342,2.342,0,0,0,.71-.388c1.5-1.491,8.726-8.346,12.594-6.488C274.684,31.856,277.752,27.339,277.6,26.615Zm-9.026-5.435.226.146.265.043c4.638.772,4.815,3.164,4.815,3.189l0,.226a3.121,3.121,0,0,0-2.113-.758.862.862,0,0,0-1.254-.524c-.969-1.072-2.622-1.509-3.969-1.965A2.186,2.186,0,0,0,267,20.33,12.519,12.519,0,0,1,268.572,21.18Zm-2.41.715a10.224,10.224,0,0,1,4.006,1.967.854.854,0,0,0-.094.382c-.361.082-.719.181-1.078.265-.747.172-1.509.279-2.265.4-1.25.2-2.552.341-3.776.663a4.646,4.646,0,0,0-.953.376,7.693,7.693,0,0,1,.844-.891,13.178,13.178,0,0,0,1.3-1.484,5.516,5.516,0,0,0,.431-.741c.193-.113.386-.226.579-.341a.22.22,0,0,0,.092-.1A6.349,6.349,0,0,0,266.161,21.894ZM248.02,35.68c.012-.548.014-1.1.047-1.64l.158-.211c.127.14.238.3.361.433a3.644,3.644,0,0,0,.8.591,7.949,7.949,0,0,0,2.252.79,17.538,17.538,0,0,0,2.189.536c.193.023.386.039.579.053a79.856,79.856,0,0,0-7.794,3.8c.084-.183.172-.363.269-.536a11.569,11.569,0,0,0,.873-1.721A6.438,6.438,0,0,0,248.02,35.68Zm6.158.076a14.613,14.613,0,0,1-2.417-.556,9.593,9.593,0,0,1-2.141-.745,3.283,3.283,0,0,1-.893-.727c-.082-.09-.152-.179-.226-.263l.053-.07a15.245,15.245,0,0,0,3.182-.743,1.207,1.207,0,0,0,.973.493.95.95,0,0,0,.133-.008,7.268,7.268,0,0,0,2.788,2.624c-.06.021-.119.043-.179.066C255.027,35.8,254.6,35.79,254.177,35.755Zm-2.263-5.716a15.442,15.442,0,0,0-.924-1.513,12.58,12.58,0,0,1-1.076-2.261,1.809,1.809,0,0,0,.959-1.133c1.09.226,2.144.624,3.25.749a13.172,13.172,0,0,0,3.628-.037,14.427,14.427,0,0,0,3.605-1.308c.838-.388,1.655-.819,2.458-1.271a10.064,10.064,0,0,1-1.191,1.357,11.206,11.206,0,0,0-1.082,1.172,1.468,1.468,0,0,0-.513-.092,1.488,1.488,0,0,0-1.489,1.489,1.451,1.451,0,0,0,.082.482c-1.012.793-2.176,1.316-3.242,2.033a28.49,28.49,0,0,1-2.616,1.645,1.211,1.211,0,0,0-1.062-.628,1.224,1.224,0,0,0-.46.09C252.144,30.553,252.036,30.294,251.914,30.039Zm4.895,5.34c-.17.047-.349.1-.536.162a6.05,6.05,0,0,1-2.971-2.554,1.211,1.211,0,0,0,.618-1.055,1.007,1.007,0,0,0-.006-.111,14.174,14.174,0,0,0,1.511-.883c.534-.357,1.045-.749,1.589-1.09s1.1-.624,1.647-.942a10.775,10.775,0,0,0,1.187-.819,1.516,1.516,0,0,0,.236.25c-.583,1.039-1.125,2.1-1.622,3.184a9.881,9.881,0,0,0-.961,3.187C257.206,34.986,256.971,35.218,256.809,35.38ZM251.381,21.2a18.128,18.128,0,0,0,5.507,2.322,8.733,8.733,0,0,0,2.213.265,14.772,14.772,0,0,0,3.86-.575c-.5.271-1.006.532-1.519.78a15.271,15.271,0,0,1-3.809,1.411,11.264,11.264,0,0,1-3.609,0c-1.045-.158-2.045-.509-3.078-.723,0-.016,0-.031,0-.047a1.81,1.81,0,0,0-2.472-1.686,30.915,30.915,0,0,0-2.256-3.427,8.319,8.319,0,0,0-2.086-1.99c-.1-.068-.2-.138-.3-.207a30.764,30.764,0,0,1,7.525,3.856Zm-20.238-1.273a12.776,12.776,0,0,1,4.757-3.1l.025-.006.014,0a9.688,9.688,0,0,1,2.821-.4c.253,0,.505.008.76.025a1.808,1.808,0,0,0,3.31.659c.041.043.082.082.123.119a14.8,14.8,0,0,0,1.343.992,8.752,8.752,0,0,1,2.1,2.378c.571.844,1.195,1.68,1.7,2.569a1.827,1.827,0,0,0-.536.585c-2.948-1.3-5.517-3.5-8.777-4.01a13.5,13.5,0,0,0-3.02-.051,7.227,7.227,0,0,0-2.87.743,9.628,9.628,0,0,0-1.936,1.55,8.3,8.3,0,0,0-.932.959,1.849,1.849,0,0,0-.5-.072,1.812,1.812,0,0,0-1.579.924,5.873,5.873,0,0,0-1.423-.09A25.6,25.6,0,0,0,231.142,19.923ZM218.5,26.257a11.876,11.876,0,0,0,1.831-.15,6.23,6.23,0,0,0-1.164,1.474c-.086,0-.172,0-.257,0a11.113,11.113,0,0,1-4.158-.686,10.2,10.2,0,0,1-1.435-2.158,5.835,5.835,0,0,1-.735-2.031,2.058,2.058,0,0,1,.037-.636C213.025,24.674,215.214,26.257,218.5,26.257ZM212.58,25.4a6.386,6.386,0,0,1-1.3-4.6c.474-1.86,1.1-2.694,1.507-2.694a1.952,1.952,0,0,1,1.035.55l0,0,.031.023c.029.025.055.049.082.074a1.3,1.3,0,0,1,.279.47,2.687,2.687,0,0,1,.1.495c0,.078-.012.331-.376.318l-.782-.1h0l-.006,0-.265-.035c-.179.008-.38.094-.4.437l.014.255s0,.008,0,.012,0-.008,0-.012l.029.507a3.23,3.23,0,0,0,.023,3.129,12.422,12.422,0,0,0,1.176,2.156A5.1,5.1,0,0,1,212.58,25.4Zm-.035-4.54c-.006-.037-.012-.084-.021-.144C212.532,20.757,212.539,20.808,212.545,20.856Zm-.021-.158c0-.029-.008-.062-.014-.1C212.512,20.624,212.518,20.658,212.524,20.7Zm9.258,6.687c-.719.094-1.408.156-2.063.183a4.772,4.772,0,0,1,.9-1.1,8.051,8.051,0,0,1,.772-.567,15.676,15.676,0,0,0,1.585-.462,16.658,16.658,0,0,0,2.6-1.189,6.484,6.484,0,0,1,2.2-.035,1.8,1.8,0,0,0-.057.448,1.649,1.649,0,0,0,.016.226A27.827,27.827,0,0,1,221.782,27.385Zm16.409.889Zm.012.018a4.684,4.684,0,0,1,.71,2.8c-.058.049-.092.078-.1.08l-1.174.951a7.734,7.734,0,0,0-1.324.107,4.513,4.513,0,0,0-.522.1Zm4.291,7.285c.22.335.121.749-.158,1.252a23.54,23.54,0,0,0-6.866-3.881,2.974,2.974,0,0,1,1.115-.287c.253-.033.511-.066.77-.074l1.755.778A10.653,10.653,0,0,1,242.494,35.577ZM239.37,30.7a4.771,4.771,0,0,0-.93-2.872c.06-.322-.261-.446-.456-.489l-1.193-.175a10.21,10.21,0,0,1-4.852-1.647,2.925,2.925,0,0,1-.606-.793c0-.023,0-.043,0-.064a1.8,1.8,0,0,0-.148-.715,8.682,8.682,0,0,1,6.406.289c1.037.417,2.01.977,3.041,1.411a11.332,11.332,0,0,1,1.509.727c.144.086.3.172.454.267l-.515.936A14.027,14.027,0,0,1,239.37,30.7Zm4.731-3.449-.552-.515a.007.007,0,0,1,0,0c-.016-.018-.031-.033-.047-.049l-.144-.133a.719.719,0,0,0-.294-.152c-.078-.051-.158-.1-.238-.152a12.6,12.6,0,0,0-1.573-.848c-1.139-.495-2.244-1.074-3.388-1.556a9.133,9.133,0,0,0-6.913-.3,1.809,1.809,0,0,0-.491-.435,9.71,9.71,0,0,1,.916-.905,8.614,8.614,0,0,1,2.008-1.523,7.51,7.51,0,0,1,2.959-.585,11.561,11.561,0,0,1,2.987.193c2.95.645,5.34,2.636,8.061,3.858a1.774,1.774,0,0,0-.066.48,1.8,1.8,0,0,0,2.148,1.778l.148.4a16.206,16.206,0,0,0,1.579,2.9,8.629,8.629,0,0,1,.657,1.359,1.212,1.212,0,0,0-.357.858,1.159,1.159,0,0,0,.035.281c-.224.062-.45.119-.676.183a14.056,14.056,0,0,1-2.185.53c-.051.006-.1.008-.152.012l-.154-.365C247.463,30.423,244.441,27.571,244.1,27.253Zm-2.427,15.263,5.936-7.872a9.859,9.859,0,0,1-.3,3.01,11.315,11.315,0,0,1-.977,1.877c-.156.279-.283.593-.423.9a22.071,22.071,0,0,0-2.289,1.433,7.516,7.516,0,0,0-.78.7c-.17.074-.343.144-.513.216a10.124,10.124,0,0,0-1.181.548,4.028,4.028,0,0,1,.493-.774Zm1.928,4.406-2.033-.016a3.042,3.042,0,0,1-.782-2.47c.117-.446.3-.5.3-.5l0,0a5.2,5.2,0,0,1,.641-.365c.158-.082.32-.156.482-.23a3.82,3.82,0,0,0-.632,1.367l-.09.476c-.01.158.031.558.657.887l.255.094A4.031,4.031,0,0,1,243.6,46.923Zm17.07-14.945c-1.025.8-1.934,1.589-2.636,2.234a11.032,11.032,0,0,1,.893-2.6c.474-1.029,1-2.045,1.554-3.035a1.486,1.486,0,0,0,1.77-2.232,10.56,10.56,0,0,1,3.156-.735c1.408-.222,2.846-.421,4.228-.782.181-.047.365-.094.552-.138a.865.865,0,0,0,.647.425,3.044,3.044,0,0,1-.045,1.287,12.735,12.735,0,0,1-.659,1.922,5.012,5.012,0,0,0-1.271-.16C266.681,28.163,263.926,29.446,260.671,31.978Zm11.937-2.955h0a3.923,3.923,0,0,1-1.7-.415c-.113-.053-.23-.1-.347-.146.263-.63.468-1.3.669-1.938a2.93,2.93,0,0,0,.049-1.478.862.862,0,0,0,.48-.556,2.858,2.858,0,0,1,1.452.39c.5.3.922.725,1.425,1.029a4.756,4.756,0,0,1,1.454.938.313.313,0,0,0,.035.039A4.5,4.5,0,0,1,272.608,29.023Z" transform="translate(-204.001 8.983)"/></svg>
